<svg width="379" height="118" viewBox="0 0 379 118" fill="none" xmlns="http://www.w3.org/2000/svg">
<path d="M135.658 41.5918C132.764 40.7598 130.654 39.7402 129.33 38.5332C128.018 37.3145 127.361 35.8145 127.361 34.0332C127.361 32.0176 128.164 30.3535 129.77 29.041C131.387 27.7168 133.484 27.0547 136.062 27.0547C137.82 27.0547 139.385 27.3945 140.756 28.0742C142.139 28.7539 143.205 29.6914 143.955 30.8867C144.717 32.082 145.098 33.3887 145.098 34.8066H141.705C141.705 33.2598 141.213 32.0469 140.229 31.168C139.244 30.2773 137.855 29.832 136.062 29.832C134.398 29.832 133.098 30.2012 132.16 30.9395C131.234 31.666 130.771 32.6797 130.771 33.9805C130.771 35.0234 131.211 35.9082 132.09 36.6348C132.98 37.3496 134.486 38.0059 136.607 38.6035C138.74 39.2012 140.404 39.8633 141.6 40.5898C142.807 41.3047 143.697 42.1426 144.271 43.1035C144.857 44.0645 145.15 45.1953 145.15 46.4961C145.15 48.5703 144.342 50.2344 142.725 51.4883C141.107 52.7305 138.945 53.3516 136.238 53.3516C134.48 53.3516 132.84 53.0176 131.316 52.3496C129.793 51.6699 128.615 50.7441 127.783 49.5723C126.963 48.4004 126.553 47.0703 126.553 45.582H129.945C129.945 47.1289 130.514 48.3535 131.65 49.2559C132.799 50.1465 134.328 50.5918 136.238 50.5918C138.02 50.5918 139.385 50.2285 140.334 49.502C141.283 48.7754 141.758 47.7852 141.758 46.5312C141.758 45.2773 141.318 44.3105 140.439 43.6309C139.561 42.9395 137.967 42.2598 135.658 41.5918ZM152.234 36.2832C153.676 34.5137 155.551 33.6289 157.859 33.6289C161.879 33.6289 163.906 35.8965 163.941 40.4316V53H160.689V40.4141C160.678 39.043 160.361 38.0293 159.74 37.373C159.131 36.7168 158.176 36.3887 156.875 36.3887C155.82 36.3887 154.895 36.6699 154.098 37.2324C153.301 37.7949 152.68 38.5332 152.234 39.4473V53H148.982V26H152.234V36.2832ZM180.553 53C180.365 52.625 180.213 51.957 180.096 50.9961C178.584 52.5664 176.779 53.3516 174.682 53.3516C172.807 53.3516 171.266 52.8242 170.059 51.7695C168.863 50.7031 168.266 49.3555 168.266 47.7266C168.266 45.7461 169.016 44.2109 170.516 43.1211C172.027 42.0195 174.148 41.4688 176.879 41.4688H180.043V39.9746C180.043 38.8379 179.703 37.9355 179.023 37.2676C178.344 36.5879 177.342 36.248 176.018 36.248C174.857 36.248 173.885 36.541 173.1 37.127C172.314 37.7129 171.922 38.4219 171.922 39.2539H168.652C168.652 38.3047 168.986 37.3906 169.654 36.5117C170.334 35.6211 171.248 34.918 172.396 34.4023C173.557 33.8867 174.828 33.6289 176.211 33.6289C178.402 33.6289 180.119 34.1797 181.361 35.2812C182.604 36.3711 183.248 37.877 183.295 39.7988V48.5527C183.295 50.2988 183.518 51.6875 183.963 52.7188V53H180.553ZM175.156 50.5215C176.176 50.5215 177.143 50.2578 178.057 49.7305C178.971 49.2031 179.633 48.5176 180.043 47.6738V43.7715H177.494C173.51 43.7715 171.518 44.9375 171.518 47.2695C171.518 48.2891 171.857 49.0859 172.537 49.6602C173.217 50.2344 174.09 50.5215 175.156 50.5215ZM187.602 43.332C187.602 40.4141 188.293 38.0703 189.676 36.3008C191.059 34.5195 192.869 33.6289 195.107 33.6289C197.334 33.6289 199.098 34.3906 200.398 35.9141V26H203.65V53H200.662L200.504 50.9609C199.203 52.5547 197.393 53.3516 195.072 53.3516C192.869 53.3516 191.07 52.4492 189.676 50.6445C188.293 48.8398 187.602 46.4844 187.602 43.5781V43.332ZM190.854 43.7012C190.854 45.8574 191.299 47.5449 192.189 48.7637C193.08 49.9824 194.311 50.5918 195.881 50.5918C197.943 50.5918 199.449 49.666 200.398 47.8145V39.0781C199.426 37.2852 197.932 36.3887 195.916 36.3887C194.322 36.3887 193.08 37.0039 192.189 38.2344C191.299 39.4648 190.854 41.2871 190.854 43.7012ZM207.852 43.3145C207.852 41.4512 208.215 39.7754 208.941 38.2871C209.68 36.7988 210.699 35.6504 212 34.8418C213.312 34.0332 214.807 33.6289 216.482 33.6289C219.072 33.6289 221.164 34.5254 222.758 36.3184C224.363 38.1113 225.166 40.4961 225.166 43.4727V43.7012C225.166 45.5527 224.809 47.2168 224.094 48.6934C223.391 50.1582 222.377 51.3008 221.053 52.1211C219.74 52.9414 218.229 53.3516 216.518 53.3516C213.939 53.3516 211.848 52.4551 210.242 50.6621C208.648 48.8691 207.852 46.4961 207.852 43.543V43.3145ZM211.121 43.7012C211.121 45.8105 211.607 47.5039 212.58 48.7812C213.564 50.0586 214.877 50.6973 216.518 50.6973C218.17 50.6973 219.482 50.0527 220.455 48.7637C221.428 47.4629 221.914 45.6465 221.914 43.3145C221.914 41.2285 221.416 39.541 220.42 38.252C219.436 36.9512 218.123 36.3008 216.482 36.3008C214.877 36.3008 213.582 36.9395 212.598 38.2168C211.613 39.4941 211.121 41.3223 211.121 43.7012ZM246.084 48.5176L249.74 33.9805H252.992L247.455 53H244.818L240.195 38.5859L235.695 53H233.059L227.539 33.9805H230.773L234.518 48.2188L238.947 33.9805H241.566L246.084 48.5176Z" fill="black"/>
<path d="M146.951 78.5918C147.209 80.4668 146.236 81.8379 144.033 82.7051L140.992 83.8125L139.973 84.252C136.551 85.8105 134.951 88.002 135.174 90.8262C135.291 92.2441 135.777 93.498 136.633 94.5879C137.488 95.6777 138.619 96.5156 140.025 97.1016C141.443 97.6992 142.949 97.9805 144.543 97.9453C146.09 97.9102 147.467 97.5645 148.674 96.9082C149.893 96.252 150.818 95.332 151.451 94.1484C152.084 92.9766 152.365 91.6523 152.295 90.1758L148.973 90.1934C149.09 91.7637 148.738 92.9766 147.918 93.832C147.098 94.6992 145.926 95.1445 144.402 95.168C142.797 95.1914 141.455 94.8164 140.377 94.043C139.299 93.2695 138.678 92.2148 138.514 90.8789C138.279 89.1328 139.352 87.8086 141.73 86.9062L144.35 85.9746L145.668 85.4121C148.973 83.8887 150.502 81.627 150.256 78.627C150.127 77.1855 149.641 75.9375 148.797 74.8828C147.953 73.8398 146.805 73.0312 145.352 72.457C143.91 71.8828 142.357 71.6133 140.693 71.6484C139.088 71.6602 137.617 72 136.281 72.668C134.957 73.3477 133.949 74.2734 133.258 75.4453C132.566 76.6172 132.262 77.9473 132.344 79.4355L135.648 79.418C135.543 77.8945 135.953 76.6816 136.879 75.7793C137.816 74.8887 139.135 74.4316 140.834 74.4082C142.533 74.3848 143.934 74.7539 145.035 75.5156C146.137 76.2773 146.775 77.3027 146.951 78.5918ZM158.939 88.6992C160.604 90.5156 162.52 91.4004 164.688 91.3535C166.469 91.3301 167.787 90.7148 168.643 89.5078C169.51 88.3125 169.832 86.6309 169.609 84.4629L167.535 72H164.354L166.445 84.5156C166.516 85.0898 166.521 85.623 166.463 86.1152C166.264 87.7559 165.297 88.5938 163.562 88.6289C161.617 88.6758 159.941 87.6562 158.535 85.5703L156.18 72H152.998L157.691 99H160.873L158.939 88.6992ZM184.041 72C183.959 72.3398 183.918 72.6738 183.918 73.002L183.971 74.0039C182.225 72.3867 180.373 71.6016 178.416 71.6484C176.74 71.6719 175.375 72.1992 174.32 73.2305C173.277 74.2734 172.803 75.5742 172.896 77.1328C173.014 79.1484 173.893 80.7188 175.533 81.8438C177.186 82.9805 179.354 83.5488 182.037 83.5488L185.359 83.5312L185.57 85.043C185.688 86.1797 185.465 87.0762 184.902 87.7324C184.352 88.4004 183.52 88.7461 182.406 88.7695C181.316 88.793 180.35 88.5234 179.506 87.9609C178.674 87.4102 178.164 86.6777 177.977 85.7637L174.777 85.7461C174.883 86.8594 175.316 87.8438 176.078 88.6992C176.84 89.5664 177.818 90.2344 179.014 90.7031C180.209 91.1836 181.445 91.4121 182.723 91.3887C184.703 91.3418 186.244 90.7383 187.346 89.5781C188.447 88.4297 188.91 86.9004 188.734 84.9902L187.188 75.5684L187.1 74.2148C187.076 73.5703 187.146 72.9316 187.311 72.2988L187.275 72H184.041ZM179.049 74.4609C180.068 74.4375 181.029 74.6777 181.932 75.1816C182.846 75.6973 183.631 76.4062 184.287 77.3086L184.973 81.2285L182.564 81.2461C180.561 81.2461 179.025 80.9297 177.959 80.2969C176.893 79.6641 176.289 78.7676 176.148 77.6074C176.043 76.7168 176.248 75.9727 176.764 75.375C177.291 74.7891 178.053 74.4844 179.049 74.4609ZM192.514 81.5449C192.748 83.4785 193.281 85.2246 194.113 86.7832C194.945 88.3418 195.971 89.5078 197.189 90.2812C198.408 91.0547 199.75 91.4238 201.215 91.3887C203.336 91.3418 204.965 90.5684 206.102 89.0684L207.93 99H211.111L206.436 72H203.535L203.869 74.0391C202.369 72.3984 200.518 71.6016 198.314 71.6484C196.557 71.6953 195.156 72.3809 194.113 73.7051C193.07 75.041 192.508 76.8281 192.426 79.0664C192.391 79.7578 192.42 80.584 192.514 81.5449ZM195.572 79.7168C195.537 78.041 195.836 76.7402 196.469 75.8145C197.102 74.8887 198.027 74.4141 199.246 74.3906C201.086 74.3086 202.721 75.2344 204.15 77.168L205.662 85.957C204.959 87.6914 203.682 88.582 201.83 88.6289C200.576 88.6641 199.469 88.2832 198.508 87.4863C197.559 86.7012 196.832 85.5938 196.328 84.1641C195.836 82.7461 195.584 81.2637 195.572 79.7168ZM222.027 91.3711C223.621 91.3477 224.986 90.9141 226.123 90.0703C227.26 89.2266 228.098 88.0605 228.637 86.5723C229.188 85.0957 229.375 83.4785 229.199 81.7207L229.164 81.334C228.941 79.4824 228.391 77.8066 227.512 76.3066C226.633 74.8184 225.496 73.6582 224.102 72.8262C222.707 71.9941 221.178 71.6016 219.514 71.6484C217.932 71.6719 216.566 72.1055 215.418 72.9492C214.281 73.793 213.449 74.9414 212.922 76.3945C212.395 77.8477 212.207 79.4473 212.359 81.1934C212.535 83.1621 213.068 84.9316 213.959 86.502C214.85 88.0723 215.992 89.2852 217.387 90.1406C218.793 91.0078 220.34 91.418 222.027 91.3711ZM215.559 81.1758C215.477 80.4375 215.477 79.6699 215.559 78.873C215.676 77.4902 216.086 76.3887 216.789 75.5684C217.504 74.748 218.453 74.3203 219.637 74.2852C220.691 74.25 221.664 74.5078 222.555 75.0586C223.445 75.6211 224.195 76.4648 224.805 77.5898C225.414 78.7148 225.807 79.9629 225.982 81.334C226.076 82.4121 226.094 83.3203 226.035 84.0586C225.895 85.4766 225.467 86.5957 224.752 87.416C224.037 88.2363 223.088 88.6699 221.904 88.7168C220.264 88.752 218.869 88.1074 217.721 86.7832C216.572 85.459 215.863 83.7246 215.594 81.5801L215.559 81.1758ZM248.641 76.5L254.705 91.0195H257.992L249.326 72H246.742L244.773 86.3789L237.918 72H235.334L233.277 91.0195H236.318L237.479 76.8516L244.229 91.0195H246.795L248.641 76.5Z" fill="black" fill-opacity="0.65"/>
<ellipse cx="62.5" cy="14.5" rx="16.5" ry="14.5" fill="#F1F52E"/>
<line x1="62" y1="60.5" x2="305.002" y2="60.5" stroke="black"/>
</svg>
